# Blender 3.6.1
# www.blender.org
mtllib stairs.mtl
o Material2
v 5.940947 -0.000001 -5.905514
v 0.000000 0.000000 0.000000
v 0.000000 -0.000001 -5.905514
v 5.940947 0.000000 0.000000
v 0.000000 5.622048 -5.905515
v 0.000000 0.000000 0.000000
v 0.000000 5.622049 -0.000001
v 0.000000 -0.000001 -5.905514
v 0.000000 5.622048 -5.905515
v 5.940947 -0.000001 -5.905514
v 0.000000 -0.000001 -5.905514
v 5.940947 2.811024 -5.905514
v 11.881893 -0.000001 -5.905514
v 11.143703 0.351377 -5.905514
v 10.405513 0.702755 -5.905514
v 9.667326 1.054134 -5.905514
v 8.929136 1.405512 -5.905514
v 8.190947 1.756890 -5.905514
v 7.452757 2.108268 -5.905514
v 6.714569 2.459646 -5.905514
v 5.202757 3.162402 -5.905514
v 4.464568 3.513780 -5.905514
v 3.726379 3.865158 -5.905514
v 2.988190 4.216536 -5.905514
v 2.250000 4.567914 -5.905514
v 1.511811 4.919291 -5.905514
v 0.773622 5.270670 -5.905514
v 0.773622 5.622048 -5.905515
v 1.511811 5.270670 -5.905514
v 2.250000 4.919291 -5.905514
v 2.988190 4.567914 -5.905514
v 3.726379 4.216536 -5.905514
v 4.464568 3.865158 -5.905514
v 5.202757 3.513780 -5.905514
v 5.940947 3.162402 -5.905514
v 6.714569 2.811024 -5.905514
v 7.452757 2.459646 -5.905514
v 8.190947 2.108268 -5.905514
v 8.929136 1.756890 -5.905514
v 9.667326 1.405512 -5.905514
v 10.405513 1.054134 -5.905514
v 11.143703 0.702755 -5.905514
v 11.881893 0.351377 -5.905514
v 11.881893 -0.000001 -5.905514
v 11.881893 0.000000 0.000000
v 11.881893 0.351378 -0.000000
v 5.940947 0.000000 0.000000
v 11.881893 0.000000 0.000000
v 0.000000 0.000000 0.000000
v 11.143703 0.351378 -0.000000
v 5.940947 2.811025 -0.000000
v 0.000000 5.622049 -0.000001
v 10.405513 0.702756 -0.000000
v 11.143703 0.702756 -0.000000
v 9.667326 1.054134 -0.000000
v 10.405513 1.054134 -0.000000
v 8.929136 1.405512 -0.000000
v 9.667326 1.405512 -0.000000
v 8.190947 1.756891 -0.000000
v 8.929136 1.756891 -0.000000
v 7.452757 2.108269 -0.000000
v 8.190947 2.108269 -0.000000
v 6.714569 2.459647 -0.000000
v 7.452757 2.459647 -0.000000
v 6.714569 2.811025 -0.000000
v 5.202757 3.162403 -0.000000
v 5.940947 3.162403 -0.000000
v 4.464568 3.513781 -0.000000
v 5.202757 3.513781 -0.000000
v 3.726379 3.865158 -0.000001
v 4.464568 3.865158 -0.000001
v 2.988190 4.216537 -0.000001
v 3.726379 4.216537 -0.000001
v 2.250000 4.567914 -0.000001
v 2.988190 4.567914 -0.000001
v 1.511811 4.919292 -0.000001
v 2.250000 4.919292 -0.000001
v 0.773622 5.270671 -0.000001
v 1.511811 5.270671 -0.000001
v 0.773622 5.622049 -0.000001
v 0.773622 5.622049 -0.000001
v 0.000000 5.622048 -5.905515
v 0.000000 5.622049 -0.000001
v 0.773622 5.622048 -5.905515
v 0.773622 5.270670 -5.905514
v 0.773622 5.622049 -0.000001
v 0.773622 5.270671 -0.000001
v 0.773622 5.622048 -5.905515
v 1.511811 5.270671 -0.000001
v 0.773622 5.270670 -5.905514
v 0.773622 5.270671 -0.000001
v 1.511811 5.270670 -5.905514
v 1.511811 4.919291 -5.905514
v 1.511811 5.270671 -0.000001
v 1.511811 4.919292 -0.000001
v 1.511811 5.270670 -5.905514
v 2.250000 4.919292 -0.000001
v 1.511811 4.919291 -5.905514
v 1.511811 4.919292 -0.000001
v 2.250000 4.919291 -5.905514
v 2.250000 4.567914 -5.905514
v 2.250000 4.919292 -0.000001
v 2.250000 4.567914 -0.000001
v 2.250000 4.919291 -5.905514
v 2.988190 4.567914 -0.000001
v 2.250000 4.567914 -5.905514
v 2.250000 4.567914 -0.000001
v 2.988190 4.567914 -5.905514
v 2.988190 4.216536 -5.905514
v 2.988190 4.567914 -0.000001
v 2.988190 4.216537 -0.000001
v 2.988190 4.567914 -5.905514
v 3.726379 4.216537 -0.000001
v 2.988190 4.216536 -5.905514
v 2.988190 4.216537 -0.000001
v 3.726379 4.216536 -5.905514
v 3.726379 3.865158 -5.905514
v 3.726379 4.216537 -0.000001
v 3.726379 3.865158 -0.000001
v 3.726379 4.216536 -5.905514
v 4.464568 3.865158 -0.000001
v 3.726379 3.865158 -5.905514
v 3.726379 3.865158 -0.000001
v 4.464568 3.865158 -5.905514
v 4.464568 3.513780 -5.905514
v 4.464568 3.865158 -0.000001
v 4.464568 3.513781 -0.000000
v 4.464568 3.865158 -5.905514
v 5.202757 3.513781 -0.000000
v 4.464568 3.513780 -5.905514
v 4.464568 3.513781 -0.000000
v 5.202757 3.513780 -5.905514
v 5.202757 3.162402 -5.905514
v 5.202757 3.513781 -0.000000
v 5.202757 3.162403 -0.000000
v 5.202757 3.513780 -5.905514
v 5.940947 3.162403 -0.000000
v 5.202757 3.162402 -5.905514
v 5.202757 3.162403 -0.000000
v 5.940947 3.162402 -5.905514
v 5.940947 2.811024 -5.905514
v 5.940947 3.162403 -0.000000
v 5.940947 2.811025 -0.000000
v 5.940947 3.162402 -5.905514
v 6.714569 2.811025 -0.000000
v 5.940947 2.811024 -5.905514
v 5.940947 2.811025 -0.000000
v 6.714569 2.811024 -5.905514
v 6.714569 2.459646 -5.905514
v 6.714569 2.811025 -0.000000
v 6.714569 2.459647 -0.000000
v 6.714569 2.811024 -5.905514
v 7.452757 2.459647 -0.000000
v 6.714569 2.459646 -5.905514
v 6.714569 2.459647 -0.000000
v 7.452757 2.459646 -5.905514
v 7.452757 2.108268 -5.905514
v 7.452757 2.459647 -0.000000
v 7.452757 2.108269 -0.000000
v 7.452757 2.459646 -5.905514
v 8.190947 2.108269 -0.000000
v 7.452757 2.108268 -5.905514
v 7.452757 2.108269 -0.000000
v 8.190947 2.108268 -5.905514
v 8.190947 1.756890 -5.905514
v 8.190947 2.108269 -0.000000
v 8.190947 1.756891 -0.000000
v 8.190947 2.108268 -5.905514
v 8.929136 1.756891 -0.000000
v 8.190947 1.756890 -5.905514
v 8.190947 1.756891 -0.000000
v 8.929136 1.756890 -5.905514
v 8.929136 1.405512 -5.905514
v 8.929136 1.756891 -0.000000
v 8.929136 1.405512 -0.000000
v 8.929136 1.756890 -5.905514
v 9.667326 1.405512 -0.000000
v 8.929136 1.405512 -5.905514
v 8.929136 1.405512 -0.000000
v 9.667326 1.405512 -5.905514
v 9.667326 1.054134 -5.905514
v 9.667326 1.405512 -0.000000
v 9.667326 1.054134 -0.000000
v 9.667326 1.405512 -5.905514
v 10.405513 1.054134 -0.000000
v 9.667326 1.054134 -5.905514
v 9.667326 1.054134 -0.000000
v 10.405513 1.054134 -5.905514
v 10.405513 0.702755 -5.905514
v 10.405513 1.054134 -0.000000
v 10.405513 0.702756 -0.000000
v 10.405513 1.054134 -5.905514
v 11.143703 0.702756 -0.000000
v 10.405513 0.702755 -5.905514
v 10.405513 0.702756 -0.000000
v 11.143703 0.702755 -5.905514
v 11.143703 0.351377 -5.905514
v 11.143703 0.702756 -0.000000
v 11.143703 0.351378 -0.000000
v 11.143703 0.702755 -5.905514
v 11.881893 0.351378 -0.000000
v 11.143703 0.351377 -5.905514
v 11.143703 0.351378 -0.000000
v 11.881893 0.351377 -5.905514
v 11.881893 -0.000001 -5.905514
v 11.881893 0.351378 -0.000000
v 11.881893 0.000000 0.000000
v 11.881893 0.351377 -5.905514
vn -0.0000 -1.0000 -0.0000
vn -1.0000 -0.0000 -0.0000
vn -0.0000 -0.0000 -1.0000
vn -0.0000 0.0003 -1.0000
vn -0.0000 -0.0003 -1.0000
vn -0.0000 -0.0002 -1.0000
vn -0.0000 0.0001 -1.0000
vn -0.0000 -0.0000 1.0000
vn -0.0000 1.0000 -0.0000
vn 1.0000 -0.0000 -0.0000
s 0
usemtl Carrera_Marble
f 1//1 2//1 3//1
f 2//1 1//1 4//1
f 5//2 6//2 7//2
f 6//2 5//2 8//2
f 9//3 10//3 11//3
f 10//3 9//3 12//3
f 10//3 12//3 13//3
f 13//4 12//4 14//4
f 14//4 12//4 15//4
f 15//5 12//5 16//5
f 16//4 12//4 17//4
f 17//3 12//3 18//3
f 18//6 12//6 19//6
f 19//7 12//7 20//7
f 12//3 9//3 21//3
f 21//4 9//4 22//4
f 22//3 9//3 23//3
f 23//5 9//5 24//5
f 24//4 9//4 25//4
f 25//3 9//3 26//3
f 26//7 9//7 27//7
f 27//3 9//3 28//3
f 29//3 26//3 27//3
f 30//3 25//3 26//3
f 31//3 24//3 25//3
f 32//3 23//3 24//3
f 33//3 22//3 23//3
f 34//3 21//3 22//3
f 35//3 12//3 21//3
f 36//3 20//3 12//3
f 37//3 19//3 20//3
f 38//3 18//3 19//3
f 39//3 17//3 18//3
f 40//3 16//3 17//3
f 41//3 15//3 16//3
f 42//3 14//3 15//3
f 43//3 13//3 14//3
f 44//1 4//1 1//1
f 4//1 44//1 45//1
f 46//8 47//8 48//8
f 47//8 46//8 49//8
f 49//8 46//8 50//8
f 49//8 50//8 51//8
f 49//8 51//8 52//8
f 51//8 50//8 53//8
f 53//8 50//8 54//8
f 51//8 53//8 55//8
f 55//8 53//8 56//8
f 51//8 55//8 57//8
f 57//8 55//8 58//8
f 51//8 57//8 59//8
f 59//8 57//8 60//8
f 51//8 59//8 61//8
f 61//8 59//8 62//8
f 51//8 61//8 63//8
f 63//8 61//8 64//8
f 51//8 63//8 65//8
f 52//8 51//8 66//8
f 66//8 51//8 67//8
f 52//8 66//8 68//8
f 68//8 66//8 69//8
f 52//8 68//8 70//8
f 70//8 68//8 71//8
f 52//8 70//8 72//8
f 72//8 70//8 73//8
f 52//8 72//8 74//8
f 74//8 72//8 75//8
f 52//8 74//8 76//8
f 76//8 74//8 77//8
f 52//8 76//8 78//8
f 78//8 76//8 79//8
f 52//8 78//8 80//8
f 81//9 82//9 83//9
f 82//9 81//9 84//9
f 85//10 86//10 87//10
f 86//10 85//10 88//10
f 89//9 90//9 91//9
f 90//9 89//9 92//9
f 93//10 94//10 95//10
f 94//10 93//10 96//10
f 97//9 98//9 99//9
f 98//9 97//9 100//9
f 101//10 102//10 103//10
f 102//10 101//10 104//10
f 105//9 106//9 107//9
f 106//9 105//9 108//9
f 109//10 110//10 111//10
f 110//10 109//10 112//10
f 113//9 114//9 115//9
f 114//9 113//9 116//9
f 117//10 118//10 119//10
f 118//10 117//10 120//10
f 121//9 122//9 123//9
f 122//9 121//9 124//9
f 125//10 126//10 127//10
f 126//10 125//10 128//10
f 129//9 130//9 131//9
f 130//9 129//9 132//9
f 133//10 134//10 135//10
f 134//10 133//10 136//10
f 137//9 138//9 139//9
f 138//9 137//9 140//9
f 141//10 142//10 143//10
f 142//10 141//10 144//10
f 145//9 146//9 147//9
f 146//9 145//9 148//9
f 149//10 150//10 151//10
f 150//10 149//10 152//10
f 153//9 154//9 155//9
f 154//9 153//9 156//9
f 157//10 158//10 159//10
f 158//10 157//10 160//10
f 161//9 162//9 163//9
f 162//9 161//9 164//9
f 165//10 166//10 167//10
f 166//10 165//10 168//10
f 169//9 170//9 171//9
f 170//9 169//9 172//9
f 173//10 174//10 175//10
f 174//10 173//10 176//10
f 177//9 178//9 179//9
f 178//9 177//9 180//9
f 181//10 182//10 183//10
f 182//10 181//10 184//10
f 185//9 186//9 187//9
f 186//9 185//9 188//9
f 189//10 190//10 191//10
f 190//10 189//10 192//10
f 193//9 194//9 195//9
f 194//9 193//9 196//9
f 197//10 198//10 199//10
f 198//10 197//10 200//10
f 201//9 202//9 203//9
f 202//9 201//9 204//9
f 205//10 206//10 207//10
f 206//10 205//10 208//10
